<?xml version="1.0" encoding="UTF-8" standalone="no"?>
<!DOCTYPE svg PUBLIC "-//W3C//DTD SVG 1.1//EN"
 "http://www.w3.org/Graphics/SVG/1.1/DTD/svg11.dtd">
<!-- Generated by graphviz version 9.0.0 (20230911.1827)
 -->
<!-- Title: AST Pages: 1 -->
<svg width="640pt" height="188pt"
 viewBox="0.00 0.00 639.77 188.00" xmlns="http://www.w3.org/2000/svg" xmlns:xlink="http://www.w3.org/1999/xlink">
<g id="graph0" class="graph" transform="scale(1 1) rotate(0) translate(4 184)">
<title>AST</title>
<polygon fill="white" stroke="none" points="-4,4 -4,-184 635.77,-184 635.77,4 -4,4"/>
<g id="clust1" class="cluster">
<title>cluster_0</title>
<polygon fill="none" stroke="black" points="83.77,-64 83.77,-116 225.77,-116 225.77,-64 83.77,-64"/>
</g>
<g id="clust2" class="cluster">
<title>cluster_1</title>
<polygon fill="none" stroke="black" points="481.77,-64 481.77,-116 623.77,-116 623.77,-64 481.77,-64"/>
</g>
<!-- FunStmt0 -->
<g id="node1" class="node">
<title>FunStmt0</title>
<ellipse fill="none" stroke="black" cx="154.77" cy="-162" rx="27" ry="18"/>
<text text-anchor="middle" x="154.77" y="-156.57" font-family="Times New Roman,serif" font-size="14.00">fib</text>
</g>
<!-- num -->
<g id="node2" class="node">
<title>num</title>
<ellipse fill="none" stroke="black" cx="262.77" cy="-18" rx="27" ry="18"/>
<text text-anchor="middle" x="262.77" y="-12.57" font-family="Times New Roman,serif" font-size="14.00">num</text>
</g>
<!-- FunStmt0&#45;&gt;num -->
<g id="edge1" class="edge">
<title>FunStmt0&#45;&gt;num</title>
<path fill="none" stroke="black" d="M127.34,-161.38C93.61,-160.18 37.53,-152.4 10.77,-116 -2.92,-97.38 -4.07,-81.72 10.77,-64 37.56,-32 160.67,-22.73 224.36,-20.07"/>
<polygon fill="black" stroke="black" points="224.15,-23.58 234.01,-19.7 223.88,-16.58 224.15,-23.58"/>
</g>
<!-- VarArg1 -->
<g id="node3" class="node">
<title>VarArg1</title>
<ellipse fill="none" stroke="black" cx="46.77" cy="-90" rx="27" ry="18"/>
</g>
<!-- FunStmt0&#45;&gt;VarArg1 -->
<g id="edge4" class="edge">
<title>FunStmt0&#45;&gt;VarArg1</title>
<path fill="none" stroke="black" d="M134.67,-149.73C119.35,-140.95 97.88,-128.24 79.77,-116 77.51,-114.47 75.19,-112.85 72.89,-111.19"/>
<polygon fill="black" stroke="black" points="74.97,-108.38 64.86,-105.23 70.81,-114 74.97,-108.38"/>
</g>
<g id="node4" class="node">
<title></title>
<ellipse fill="none" stroke="black" cx="334.77" cy="-90" rx="27" ry="18"/>
</g>
<!-- FunStmt0&#45;&gt; -->
<g id="edge5" class="edge">
<title>FunStmt0&#45;&gt;</title>
<path fill="none" stroke="black" d="M180.37,-155.5C209.87,-148.59 259.36,-135.28 298.77,-116 301.95,-114.45 305.16,-112.63 308.29,-110.7"/>
<polygon fill="black" stroke="black" points="310.21,-113.63 316.59,-105.17 306.33,-107.8 310.21,-113.63"/>
</g>
<!-- EnclosedStmt0 -->
<g id="node5" class="node">
<title>EnclosedStmt0</title>
<ellipse fill="none" stroke="black" cx="154.77" cy="-90" rx="62.54" ry="18"/>
<text text-anchor="middle" x="154.77" y="-84.58" font-family="Times New Roman,serif" font-size="14.00">EnclosedStmt</text>
</g>
<!-- FunStmt0&#45;&gt;EnclosedStmt0 -->
<g id="edge6" class="edge">
<title>FunStmt0&#45;&gt;EnclosedStmt0</title>
<path fill="none" stroke="black" d="M154.77,-143.7C154.77,-136.41 154.77,-127.73 154.77,-119.54"/>
<polygon fill="black" stroke="black" points="158.27,-119.62 154.77,-109.62 151.27,-119.62 158.27,-119.62"/>
</g>
<!-- n -->
<g id="node6" class="node">
<title>n</title>
<ellipse fill="none" stroke="black" cx="262.77" cy="-90" rx="27" ry="18"/>
<text text-anchor="middle" x="262.77" y="-84.58" font-family="Times New Roman,serif" font-size="14.00">n</text>
</g>
<!-- FunStmt0&#45;&gt;n -->
<g id="edge3" class="edge">
<title>FunStmt0&#45;&gt;n</title>
<path fill="none" stroke="black" d="M174.87,-149.73C190.19,-140.95 211.65,-128.24 229.77,-116 232.03,-114.47 234.35,-112.85 236.65,-111.19"/>
<polygon fill="black" stroke="black" points="238.73,-114 244.68,-105.23 234.56,-108.38 238.73,-114"/>
</g>
<!-- n&#45;&gt;num -->
<g id="edge2" class="edge">
<title>n&#45;&gt;num</title>
<path fill="none" stroke="black" d="M262.77,-71.7C262.77,-64.41 262.77,-55.73 262.77,-47.54"/>
<polygon fill="black" stroke="black" points="266.27,-47.62 262.77,-37.62 259.27,-47.62 266.27,-47.62"/>
</g>
<!-- FunStmt1 -->
<g id="node7" class="node">
<title>FunStmt1</title>
<ellipse fill="none" stroke="black" cx="416.77" cy="-162" rx="28.11" ry="18"/>
<text text-anchor="middle" x="416.77" y="-156.57" font-family="Times New Roman,serif" font-size="14.00">main</text>
</g>
<!-- FunStmt1&#45;&gt;num -->
<g id="edge7" class="edge">
<title>FunStmt1&#45;&gt;num</title>
<path fill="none" stroke="black" d="M412.76,-144.04C406.91,-122.72 394.11,-86.25 370.77,-64 351.02,-45.18 322.27,-33.72 299.39,-27.08"/>
<polygon fill="black" stroke="black" points="300.4,-23.73 289.84,-24.51 298.58,-30.49 300.4,-23.73"/>
</g>
<!-- FunStmt1&#45;&gt; -->
<g id="edge9" class="edge">
<title>FunStmt1&#45;&gt;</title>
<path fill="none" stroke="black" d="M400.57,-147.17C388.89,-137.2 372.91,-123.56 359.62,-112.21"/>
<polygon fill="black" stroke="black" points="361.97,-109.61 352.09,-105.78 357.42,-114.94 361.97,-109.61"/>
</g>
<!-- VarArg2 -->
<g id="node8" class="node">
<title>VarArg2</title>
<ellipse fill="none" stroke="black" cx="444.77" cy="-90" rx="27" ry="18"/>
</g>
<!-- FunStmt1&#45;&gt;VarArg2 -->
<g id="edge8" class="edge">
<title>FunStmt1&#45;&gt;VarArg2</title>
<path fill="none" stroke="black" d="M423.55,-144.05C426.64,-136.32 430.39,-126.96 433.86,-118.27"/>
<polygon fill="black" stroke="black" points="437.03,-119.78 437.49,-109.19 430.53,-117.18 437.03,-119.78"/>
</g>
<!-- EnclosedStmt1 -->
<g id="node9" class="node">
<title>EnclosedStmt1</title>
<ellipse fill="none" stroke="black" cx="552.77" cy="-90" rx="62.54" ry="18"/>
<text text-anchor="middle" x="552.77" y="-84.58" font-family="Times New Roman,serif" font-size="14.00">EnclosedStmt</text>
</g>
<!-- FunStmt1&#45;&gt;EnclosedStmt1 -->
<g id="edge10" class="edge">
<title>FunStmt1&#45;&gt;EnclosedStmt1</title>
<path fill="none" stroke="black" d="M438.32,-149.91C458.37,-139.59 488.75,-123.95 513.17,-111.38"/>
<polygon fill="black" stroke="black" points="514.59,-114.59 521.88,-106.9 511.39,-108.36 514.59,-114.59"/>
</g>
</g>
</svg>
